#define man_width 5
#define man_height 7
static char man_bits[] = {
   0x11, 0x11, 0x0a, 0x04, 0x0e, 0x15, 0x15};
