#define on_width 10
#define on_height 10
static char on_bits[] = {
   0x00, 0x03, 0x80, 0x01, 0x80, 0x00, 0xc0, 0x00, 0x40, 0x00, 0x61, 0x00,
   0x23, 0x00, 0x36, 0x00, 0x1c, 0x00, 0x18, 0x00};
