#define sgi_width 20
#define sgi_height 20
static char sgi_bits[] = {
   0x80, 0x08, 0x00, 0x60, 0x35, 0x00, 0x18, 0xc5, 0x00, 0x06, 0x05, 0x03,
   0x04, 0x05, 0x01, 0x18, 0xc5, 0x00, 0x60, 0x30, 0x00, 0x84, 0x0d, 0x01,
   0x1a, 0xc2, 0x02, 0x62, 0x30, 0x02, 0x82, 0x0d, 0x02, 0x32, 0x65, 0x02,
   0x0c, 0x85, 0x01, 0x60, 0x35, 0x00, 0x18, 0xc5, 0x00, 0x04, 0x05, 0x01,
   0x04, 0x05, 0x01, 0x18, 0xc5, 0x00, 0x60, 0x35, 0x00, 0x80, 0x08, 0x00};
