#define xball_b_width 5
#define xball_b_height 7
static char xball_b_bits[] = {
   0x11, 0x11, 0x0a, 0x04, 0x0a, 0x11, 0x11};
