#define xball_a_width 5
#define xball_a_height 7
static char xball_a_bits[] = {
   0x00, 0x00, 0x0e, 0x10, 0x1e, 0x11, 0x1e};
