#define xball_width 32
#define xball_height 16
static char xball_bits[] = {
   0x00, 0x00, 0x00, 0x00, 0x00, 0x00, 0x00, 0x00, 0x00, 0x00, 0x00, 0x00,
   0x00, 0x00, 0x00, 0x00, 0x00, 0x00, 0x00, 0x00, 0x88, 0x1e, 0xc0, 0x18,
   0x88, 0x24, 0x80, 0x10, 0x50, 0x24, 0x87, 0x10, 0x20, 0x1c, 0x88, 0x10,
   0x50, 0x24, 0x8f, 0x10, 0x88, 0xa4, 0x88, 0x10, 0x88, 0x1e, 0xcf, 0x39,
   0x00, 0x00, 0x00, 0x00, 0x00, 0x00, 0x00, 0x00, 0x00, 0x00, 0x00, 0x00,
   0x00, 0x00, 0x00, 0x00};
