#define xball_b_width 5
#define xball_b_height 7
static char xball_b_bits[] = {
   0x0f, 0x12, 0x12, 0x0e, 0x12, 0x12, 0x0f};
