/* XPM */
static char * xball_xpm[] = {
"32 32 129 2",
"  	c None",
". 	c #000000",
"+ 	c #565658",
"@ 	c #DBDBDB",
"# 	c #D5D5D5",
"$ 	c #CDCDCD",
"% 	c #C4C4C4",
"& 	c #C9C9C9",
"* 	c #EFEFEF",
"= 	c #FAFAFA",
"- 	c #F6F6F6",
"; 	c #E1E1E1",
"> 	c #D4D4D4",
", 	c #D8D8D8",
"' 	c #BFBFBF",
") 	c #727474",
"! 	c #131313",
"~ 	c #080808",
"{ 	c #FFFFFF",
"] 	c #ABABAB",
"^ 	c #9B9B9B",
"/ 	c #E6E6E6",
"( 	c #C0C0C0",
"_ 	c #F2F2F2",
": 	c #CBCBCB",
"< 	c #B3B3B3",
"[ 	c #C8C8C8",
"} 	c #F0F0F0",
"| 	c #A0A09F",
"1 	c #7F7F7F",
"2 	c #A0A0A0",
"3 	c #707070",
"4 	c #777777",
"5 	c #FDFDFD",
"6 	c #F1F1F1",
"7 	c #A7A7A7",
"8 	c #656565",
"9 	c #525252",
"0 	c #5D5D5D",
"a 	c #A2A2A2",
"b 	c #E5E5E5",
"c 	c #9E9E9E",
"d 	c #333333",
"e 	c #343434",
"f 	c #797979",
"g 	c #E3E3E3",
"h 	c #8C8F90",
"i 	c #EDEDED",
"j 	c #868686",
"k 	c #2E2E2E",
"l 	c #232323",
"m 	c #404040",
"n 	c #8B8B8C",
"o 	c #DEDEDE",
"p 	c #717171",
"q 	c #3E3E3E",
"r 	c #595959",
"s 	c #AEAEAE",
"t 	c #939393",
"u 	c #AFAFAF",
"v 	c #DDDDDD",
"w 	c #939798",
"x 	c #CFCFCF",
"y 	c #E8E8E8",
"z 	c #8D9192",
"A 	c #EAEAEA",
"B 	c #969696",
"C 	c #7A7A7A",
"D 	c #A9A9A9",
"E 	c #F7F7F7",
"F 	c #E7E7E7",
"G 	c #6C6C6C",
"H 	c #515151",
"I 	c #767676",
"J 	c #F9F9F9",
"K 	c #D1D1D1",
"L 	c #555555",
"M 	c #A1A1A1",
"N 	c #434343",
"O 	c #DADADA",
"P 	c #B0B0B0",
"Q 	c #1F1F1F",
"R 	c #494949",
"S 	c #5C5C5C",
"T 	c #141414",
"U 	c #191919",
"V 	c #757575",
"W 	c #C5C5C5",
"X 	c #292929",
"Y 	c #161616",
"Z 	c #3B3B3B",
"` 	c #F8F8F8",
" .	c #373737",
"..	c #3C3C3C",
"+.	c #545454",
"@.	c #101010",
"#.	c #0F0F0F",
"$.	c #585858",
"%.	c #C6C6C6",
"&.	c #696969",
"*.	c #BABABA",
"=.	c #919191",
"-.	c #4D4D4D",
";.	c #BCBCBC",
">.	c #6E6E6E",
",.	c #6F6F6F",
"'.	c #929292",
").	c #414141",
"!.	c #3F3F3F",
"~.	c #7E7E7E",
"{.	c #9F9F9F",
"].	c #B2B2B2",
"^.	c #505050",
"/.	c #B1B1B1",
"(.	c #616161",
"_.	c #646464",
":.	c #AAAAAA",
"<.	c #CECECE",
"[.	c #EBEBEB",
"}.	c #D6D6D6",
"|.	c #8B8B8B",
"1.	c #F5F5F5",
"2.	c #D2D2D2",
"3.	c #B4B4B4",
"4.	c #CCCCCC",
"5.	c #898989",
"6.	c #E2E2E2",
"7.	c #535353",
"8.	c #070808",
"        . . . . . . . . . . . . . . . . . . . . . . . .         ",
"      . . . . . . . . . . . . . . . . . . . . . . . . . . .     ",
"    . . + @ @ # $ % & @ * = - ; > , , , , , > & ' ) ! ~ . .     ",
"    . . ' { { { { { { { { { { { { { { { { { { { { { { { . . .   ",
"    . . ] { { { { { { { { { { { { { { { { { { { { { { { . . .   ",
"    . . ^ { { { { { / ( ( / { { { { { { _ : < [ } { { { . . .   ",
"    . . | { { { { { ( 1 1 ( { { { { { { / 2 3 4 ( 5 { { . . .   ",
"    . . | { { { { { ( 1 1 ( { { { { { { 6 7 8 9 0 a b { . . .   ",
"    . . ^ { { { { { / ( ( / { { { { { { { / c 9 d e f g . . .   ",
"    . . h { { { { { { { { { { { { { { { { { i j k l m < . . .   ",
"    . . n { { { { { { { { { { { { { { { { { { o p q r s . . .   ",
"    . . t { { { { { { { { { { { { { { { { { { { g < u v . . .   ",
"    . . ^ { { { { { { { { { { { { { { { { { { { { { { { . . .   ",
"    . . w { { { { { { { { { { { { { { { = o x y { { { { . . .   ",
"    . . z { { { { { { { { { { { { { { { A B C D { { { { . . .   ",
"    . . z { { { { { { { { E F F E { { { F G H I J { { { . . .   ",
"    . . z { { { { { { { { K 3 L M { { { - p N 0 O { { { . . .   ",
"    . . z { { { { { { { { P k Q R { { { { S T U V { { { . . .   ",
"    . . z { { { { { { { { W X Y Z ` { { {  .~ ~ ..{ { { . . .   ",
"    . . z { { { { { { { { 6 r d H ; { { { +.@.#.$.{ { { . . .   ",
"    . . h { { { %.3 &.*.{ { =.-.&.$ { { { ;.>.,.' { { { . . .   ",
"    . . h { { { '.).!.~.{ { {.0 0 *.{ { { { { { { { { { . . .   ",
"    . . h { { { ].L ^.a { { /.(._.:.{ { { { { { { { { { . . .   ",
"    . . h { { { * <.: [.{ { }.=.|.' { { { { { { { { { { . . .   ",
"    . . n { { { { { { { { { 1.O 2.[.{ { { { { O 3.4.1.{ . . .   ",
"    . . n { { { { { { { { { { { { { { { { { { {.4 5.6.{ . . .   ",
"    . . ) { { { { { { { { { { { { { { { { { { {.4 5.6.{ . . .   ",
"    . . 7.{ { { { { { { { { { { { { { { { { { O 3.4.1.{ . . .   ",
"    . . . . . . . . . . . . . . . . . . . . . . . . ! 8.. . .   ",
"    . . . . . . . . . . . . . . . . . . . . . . . . . . . .     ",
"      . . . . . . . . . . . . . . . . . . . . . . . . . . .     ",
"        . . . . . . . . . . . . . . . . . . . . . . . . .       "};
